<svg width="21" height="17" viewBox="0 0 21 17" fill="none" xmlns="http://www.w3.org/2000/svg"><path d="M7.037 12.7H3.409a2 2 0 01-2-2V2.51a2 2 0 012-2h14.183a2 2 0 012 2v8.19a2 2 0 01-2 2h-4.503a2 2 0 00-1.27.455L8.36 16" stroke="#343434"/><path d="M5.484 7.022c0-.299.118-.57.352-.816.235-.245.544-.368.928-.368.331 0 .608.123.832.368.224.245.336.517.336.816 0 .341-.112.64-.336.896a1.062 1.062 0 01-.832.384c-.384 0-.693-.128-.928-.384a1.284 1.284 0 01-.352-.896zm3.79 0c0-.299.118-.57.353-.816.235-.245.544-.368.928-.368.33 0 .608.123.832.368.224.245.336.517.336.816 0 .341-.112.64-.336.896a1.062 1.062 0 01-.832.384c-.384 0-.693-.128-.928-.384a1.284 1.284 0 01-.352-.896zm3.792 0c0-.299.117-.57.352-.816.234-.245.544-.368.928-.368.33 0 .608.123.832.368.224.245.336.517.336.816 0 .341-.112.64-.336.896a1.062 1.062 0 01-.832.384c-.384 0-.694-.128-.928-.384a1.284 1.284 0 01-.352-.896z" fill="#343434"/></svg>