<svg width="298" height="36" viewBox="0 0 298 36" fill="none" xmlns="http://www.w3.org/2000/svg"><path d="M49.44 10.262v5.35l7.509-.019.036 19.67 5.71-.019-.037-19.65 7.51-.019-.018-5.367-20.71.054zm30.038 24.964l-5.71.018-.036-25.018c.436 0 1.636 0 3.6-.037 2-.036 3.364-.036 4.037-.036 3.527 0 6.109.782 7.727 2.347 1.618 1.529 2.4 3.53 2.4 5.932 0 2.329-.854 4.33-2.527 5.968-1.673 1.62-3.927 2.438-6.71 2.438-1.254 0-2.181-.036-2.781-.11v8.498zm-.037-19.669l.018 5.713c.891.11 1.782.182 2.6.182 1.819 0 3.364-.891 3.346-3.075 0-1.928-1.145-2.893-3.473-2.893-.09 0-.909.037-2.49.073zM90.66 35.208l10.346-25.037h5.109l10.437 25-6.109.019-2.073-5.259-9.891.018-2.073 5.259H90.66zm12.764-17.722l-2.818 7.078h5.618l-2.8-7.078zm31.166 17.649l-.018-10.08-9.11.018.018 10.08h-5.709l-.055-25.018 5.728-.018.018 9.588 9.11-.018-.018-9.589h5.709l.036 25.019-5.709.018zm31.602-2.529c-.746.855-1.891 1.583-3.4 2.11-1.491.547-3.073.783-4.746.801-3.891 0-7.037-1.164-9.473-3.53-2.437-2.401-3.655-5.495-3.655-9.388 0-3.749 1.127-6.86 3.418-9.298 2.273-2.438 5.492-3.657 9.637-3.657 3.182 0 6.073 1.055 7.655 2.601l-2.527 4.295c-1.673-1.037-3.4-1.529-5.11-1.529-2.036 0-3.709.692-5.036 2.002-1.328 1.328-1.964 3.184-1.946 5.586 0 2.22.728 4.039 2.109 5.458 1.401 1.383 3.219 2.11 5.474 2.093 2 0 3.818-.619 5.418-1.838l2.182 4.294zm9.655 2.456l-5.71.019-.036-25.019c.436 0 1.637 0 3.6-.036 2-.037 3.364-.037 4.037-.037 3.527 0 6.109.783 7.728 2.347 1.6 1.529 2.4 3.53 2.4 5.932 0 2.33-.855 4.33-2.528 5.968-1.672 1.62-3.927 2.438-6.709 2.438-1.255 0-2.182-.036-2.782-.109v8.497zm-.036-19.669v5.714c.89.109 1.781.182 2.6.182 1.818 0 3.364-.892 3.345-3.075 0-1.93-1.145-2.893-3.473-2.893-.091 0-.909.036-2.472.072zm15.528 19.633l-.037-25.019 14.82-.036.018 5.368-9.11.018v4.403l8.037-.018.018 5.368h-8.055l.018 4.548 9.474-.018v5.368l-15.183.018zm38.82-2.529c-.745.855-1.891 1.583-3.382 2.11-1.509.528-3.073.783-4.745.801-3.892 0-7.037-1.164-9.474-3.53-2.436-2.402-3.654-5.495-3.654-9.389 0-3.748 1.127-6.86 3.418-9.297 2.291-2.439 5.491-3.658 9.637-3.658 3.182 0 6.073 1.056 7.655 2.602l-2.528 4.294c-1.672-1.037-3.4-1.528-5.109-1.528-2.036 0-3.709.691-5.037 2.001-1.327 1.329-1.963 3.185-1.963 5.586 0 2.22.727 4.04 2.109 5.459 1.4 1.383 3.218 2.11 5.473 2.092 2 0 3.818-.618 5.418-1.837l2.182 4.294zm24.729-22.599l-8.364 19.105c-1.745 4.003-4 5.932-7.309 5.95-1.4 0-3.073-.528-3.782-1.092l2-4.858c.6.4 1.182.6 1.745.6.928 0 1.528-.327 1.855-1l.327-.746-10.782-17.886 6.473-.018 7.055 12.209 5.055-12.227 5.727-.037zm8.146 25.001l-5.709.018-.037-25.019c.437 0 1.637 0 3.601-.036 2-.037 3.363-.037 4.036-.037 3.528 0 6.11.783 7.728 2.348 1.618 1.528 2.4 3.53 2.4 5.931 0 2.33-.855 4.33-2.527 5.968-1.673 1.62-3.928 2.439-6.71 2.439-1.254 0-2.182-.037-2.782-.11V34.9zm-.036-19.651l.018 5.713c.891.11 1.782.182 2.6.182 1.818 0 3.364-.892 3.346-3.075 0-1.929-1.146-2.893-3.473-2.893-.091 0-.928.036-2.491.073zM298 32.388c-.746.855-1.891 1.583-3.382 2.11-1.491.546-3.073.783-4.746.8-3.891 0-7.037-1.164-9.473-3.529-2.437-2.383-3.655-5.495-3.655-9.389 0-3.748 1.127-6.86 3.419-9.298 2.291-2.438 5.491-3.657 9.636-3.657 3.182 0 6.074 1.055 7.655 2.602l-2.527 4.294c-1.673-1.037-3.4-1.528-5.109-1.528-2.037 0-3.71.691-5.037 2.001-1.327 1.328-1.964 3.184-1.964 5.586 0 2.22.728 4.04 2.109 5.459 1.401 1.383 3.219 2.11 5.474 2.092 2 0 3.818-.618 5.418-1.837L298 32.388z" fill="#343434"/><path d="M0 25.146l6.019 9.916 30.656-.036 6.71-9.953L0 25.146z" fill="#fff"/><path d="M15.001 0l21.674 35.026 6.819-10.117L27.602 0H15z" fill="url(#paint0_linear)"/><path d="M15 0L0 25.146l6.019 9.916L27.565 0H15.001z" fill="url(#paint1_linear)"/><path d="M0 25.146l6.019 9.916 30.656-.036-6.146-9.935L0 25.146z" fill="url(#paint2_linear)"/><defs><linearGradient id="paint0_linear" x1="20.91" y1="-4.549" x2="47.299" y2="31.825" gradientUnits="userSpaceOnUse"><stop stop-color="#91191A"/><stop offset="1" stop-color="#B91A19"/></linearGradient><linearGradient id="paint1_linear" x1="25.456" y1="-.91" x2="2.705" y2="36.377" gradientUnits="userSpaceOnUse"><stop stop-color="#E30613"/><stop offset="1" stop-color="#B91A19"/></linearGradient><linearGradient id="paint2_linear" x1="0" y1="31.842" x2="42.73" y2="31.842" gradientUnits="userSpaceOnUse"><stop stop-color="#681412"/><stop offset="1" stop-color="#360601"/></linearGradient></defs></svg>