<svg width="224" height="26" viewBox="0 0 224 26" fill="none" xmlns="http://www.w3.org/2000/svg"><path d="M37.162 7.512v3.916l5.645-.013.027 14.399 4.292-.014-.027-14.385 5.644-.013-.013-3.93-15.568.04zM59.74 25.787l-4.29.013-.028-18.314c.328 0 1.23 0 2.706-.027 1.504-.027 2.529-.027 3.034-.027 2.652 0 4.593.573 5.81 1.719 1.216 1.119 1.803 2.584 1.803 4.342 0 1.705-.642 3.17-1.9 4.369-1.257 1.185-2.952 1.785-5.043 1.785-.943 0-1.64-.027-2.091-.08v6.22zm-.026-14.399l.013 4.183c.67.08 1.34.133 1.955.133 1.366 0 2.528-.653 2.514-2.251 0-1.412-.86-2.118-2.61-2.118-.068 0-.683.027-1.872.053zm8.433 14.386l7.776-18.328h3.841l7.845 18.301-4.592.013-1.558-3.849-7.435.013-1.558 3.85h-4.32zM77.74 12.8l-2.118 5.182h4.223L77.741 12.8zm23.428 12.92l-.013-7.379-6.848.014.014 7.379h-4.292l-.04-18.315 4.305-.013.013 7.02 6.848-.014-.014-7.02h4.292l.027 18.315-4.292.014zm23.755-1.851c-.561.626-1.422 1.159-2.556 1.545-1.121.4-2.31.573-3.567.586-2.925 0-5.29-.852-7.121-2.584-1.832-1.758-2.747-4.023-2.747-6.873 0-2.744.847-5.022 2.569-6.806 1.709-1.785 4.128-2.678 7.244-2.678 2.392 0 4.565.773 5.754 1.905l-1.9 3.143c-1.257-.759-2.556-1.118-3.84-1.118-1.531 0-2.788.506-3.786 1.465-.998.972-1.476 2.33-1.463 4.089 0 1.625.547 2.957 1.586 3.996 1.052 1.012 2.419 1.545 4.114 1.532a6.69 6.69 0 004.073-1.346l1.64 3.144zm7.257 1.798l-4.291.014-.028-18.315c.328 0 1.23 0 2.707-.027 1.503-.026 2.528-.026 3.034-.026 2.651 0 4.592.572 5.809 1.718 1.202 1.119 1.804 2.584 1.804 4.342 0 1.705-.643 3.17-1.9 4.37-1.258 1.184-2.952 1.784-5.044 1.784-.943 0-1.64-.027-2.091-.08v6.22zm-.027-14.398v4.182c.67.08 1.339.133 1.954.133 1.367 0 2.529-.652 2.515-2.25 0-1.413-.861-2.119-2.61-2.119-.069 0-.684.027-1.859.054zm11.673 14.371l-.027-18.314 11.139-.027.014 3.93-6.848.013v3.223l6.041-.013.014 3.93h-6.055l.014 3.33 7.121-.014v3.93l-11.413.013zm29.179-1.851c-.56.626-1.422 1.159-2.542 1.545-1.135.386-2.31.573-3.568.586-2.924 0-5.289-.852-7.12-2.584-1.832-1.758-2.748-4.022-2.748-6.873 0-2.744.848-5.021 2.57-6.806 1.722-1.785 4.128-2.678 7.244-2.678 2.392 0 4.565.773 5.754 1.905l-1.9 3.144c-1.257-.76-2.556-1.12-3.841-1.12-1.53 0-2.788.507-3.786 1.466-.997.972-1.476 2.33-1.476 4.09 0 1.624.547 2.956 1.586 3.995 1.052 1.012 2.419 1.545 4.114 1.532a6.69 6.69 0 004.073-1.346l1.64 3.144zm18.589-16.543l-6.287 13.986c-1.312 2.93-3.007 4.342-5.495 4.355-1.052 0-2.309-.386-2.842-.799l1.503-3.556c.451.293.888.44 1.312.44.697 0 1.148-.24 1.394-.733l.246-.546-8.105-13.094 4.866-.013 5.303 8.938 3.8-8.951 4.305-.027zm6.123 18.301l-4.291.014-.028-18.315c.328 0 1.231 0 2.707-.026 1.503-.027 2.528-.027 3.034-.027 2.651 0 4.592.573 5.809 1.718 1.216 1.119 1.804 2.584 1.804 4.342 0 1.705-.643 3.17-1.9 4.37-1.257 1.185-2.952 1.784-5.043 1.784-.943 0-1.641-.027-2.092-.08v6.22zm-.027-14.385l.014 4.182c.669.08 1.339.134 1.954.134 1.367 0 2.529-.653 2.515-2.251 0-1.412-.861-2.118-2.61-2.118-.069 0-.697.027-1.873.053zm26.311 12.548c-.56.625-1.421 1.158-2.542 1.544-1.121.4-2.31.573-3.567.586-2.925 0-5.29-.852-7.121-2.584-1.832-1.745-2.748-4.022-2.748-6.873 0-2.744.848-5.021 2.57-6.806 1.722-1.785 4.128-2.677 7.244-2.677 2.392 0 4.565.772 5.754 1.904l-1.9 3.144c-1.257-.76-2.556-1.119-3.84-1.119-1.531 0-2.789.506-3.786 1.465-.998.973-1.477 2.331-1.477 4.09 0 1.624.547 2.956 1.586 3.995 1.052 1.012 2.419 1.545 4.114 1.532a6.69 6.69 0 004.073-1.345l1.64 3.143zM11.275 0l16.292 25.64 5.126-7.405L20.747 0h-9.472z" fill="#fff"/><path d="M11.276 0L0 18.408l4.524 7.26L20.72 0h-9.444z" fill="#fff"/><path d="M0 18.408l4.524 7.26 23.044-.027-4.62-7.273L0 18.408z" fill="#fff"/></svg>