<svg width="10" height="17" viewBox="0 0 10 17" fill="none" xmlns="http://www.w3.org/2000/svg"><mask id="a" fill="#fff"><path fill-rule="evenodd" clip-rule="evenodd" d="M4.583 16.962s4.584-5.158 4.584-10.315c0-3.12-2.052-5.65-4.584-5.65C2.052.998 0 3.528 0 6.648c0 5.157 4.583 10.315 4.583 10.315zm-.086-8.515c.715 0 1.295-.714 1.295-1.596 0-.882-.58-1.596-1.295-1.596-.716 0-1.295.714-1.295 1.596 0 .882.58 1.596 1.295 1.596z"/></mask><path d="M4.583 16.962l-.747.664.747.841.748-.841-.748-.664zM8.167 6.647c0 2.31-1.039 4.702-2.152 6.582a23.599 23.599 0 01-2.004 2.863 12.516 12.516 0 01-.167.196l-.007.009h-.002c0 .001 0 .001 0 0l.748.665.748.663.002-.002.004-.004.012-.014.044-.05.157-.187c.133-.16.32-.393.545-.687a25.6 25.6 0 001.64-2.433c1.178-1.989 2.432-4.755 2.432-7.601h-2zm-3.584-4.65c1.794 0 3.584 1.877 3.584 4.65h2c0-3.467-2.315-6.65-5.584-6.65v2zM1 6.648c0-2.773 1.79-4.65 3.583-4.65v-2C1.315-.002-1 3.18-1 6.648h2zm3.583 10.315l.748-.664v-.001l-.008-.009a10.225 10.225 0 01-.167-.196 23.6 23.6 0 01-2.004-2.863C2.038 11.349 1 8.957 1 6.647h-2c0 2.846 1.253 5.612 2.431 7.6a25.599 25.599 0 001.64 2.434 21.326 21.326 0 00.746.924l.013.014.004.005.001.001.748-.663zm.21-10.11a.8.8 0 01-.157.498c-.079.097-.134.097-.14.097v2c1.454 0 2.296-1.367 2.296-2.596h-2zm-.296-.597c.005 0 .06 0 .14.097a.8.8 0 01.155.5h2c0-1.23-.842-2.597-2.295-2.597v2zm-.295.596a.8.8 0 01.155-.499c.08-.097.135-.097.14-.097v-2c-1.453 0-2.295 1.368-2.295 2.596h2zm.295.596c-.005 0-.06 0-.14-.097a.8.8 0 01-.155-.499h-2c0 1.229.842 2.596 2.295 2.596v-2z" fill="#343434" mask="url(#a)"/></svg>