<svg width="12" height="16" viewBox="0 0 12 16" fill="none" xmlns="http://www.w3.org/2000/svg"><mask id="a" fill="#fff"><path fill-rule="evenodd" clip-rule="evenodd" d="M5.867 16s5.867-5.17 5.867-10.338C11.734 2.535 9.107 0 5.867 0S0 2.535 0 5.662C0 10.83 5.867 16 5.867 16zm-.11-8.533c.915 0 1.657-.717 1.657-1.6 0-.884-.742-1.6-1.658-1.6-.916 0-1.658.716-1.658 1.6 0 .883.742 1.6 1.658 1.6z"/></mask><path d="M5.867 16l-.661.75.66.583.662-.583-.661-.75zm4.867-10.338c0 2.245-1.296 4.607-2.731 6.504a24.33 24.33 0 01-2.57 2.875 13.321 13.321 0 01-.216.199l-.01.008-.002.002.662.75.661.75h.001l.002-.002a.565.565 0 01.004-.004l.016-.014a23.025 23.025 0 00.95-.921 26.312 26.312 0 002.097-2.436c1.498-1.98 3.136-4.787 3.136-7.711h-2zM5.867 1c2.722 0 4.867 2.12 4.867 4.662h2C12.734 1.949 9.625-1 5.867-1v2zM1 5.662C1 3.12 3.145 1 5.867 1v-2C2.108-1-1 1.95-1 5.662h2zM5.867 16l.661-.75-.001-.002-.01-.008a7.25 7.25 0 01-.216-.2 24.33 24.33 0 01-2.57-2.875c-1.435-1.896-2.73-4.258-2.73-6.503h-2c0 2.924 1.637 5.73 3.135 7.71a26.314 26.314 0 002.792 3.123 14.554 14.554 0 00.255.235l.016.014a.565.565 0 01.004.004l.002.001.662-.749zm.547-10.133c0 .298-.26.6-.658.6v2c1.434 0 2.658-1.131 2.658-2.6h-2zm-.658-.6c.397 0 .658.302.658.6h2c0-1.47-1.224-2.6-2.658-2.6v2zm-.658.6c0-.298.26-.6.658-.6v-2c-1.434 0-2.658 1.13-2.658 2.6h2zm.658.6c-.397 0-.658-.302-.658-.6h-2c0 1.469 1.224 2.6 2.658 2.6v-2z" fill="#343434" mask="url(#a)"/></svg>