<svg width="24" height="24" viewBox="0 0 24 24" fill="none" xmlns="http://www.w3.org/2000/svg"><path fill-rule="evenodd" clip-rule="evenodd" d="M12 24c6.627 0 12-5.373 12-12S18.627 0 12 0 0 5.373 0 12s5.373 12 12 12zm.8-8.447c-.122.129-.36.154-.36.154h-.787s-1.736.103-3.265-1.46C6.72 12.543 5.248 9.16 5.248 9.16s-.085-.222.007-.328c.103-.121.386-.129.386-.129l1.881-.012s.177.029.304.12a.579.579 0 01.163.217s.304.755.707 1.438c.786 1.333 1.152 1.624 1.418 1.481.39-.208.273-1.884.273-1.884s.007-.608-.196-.88c-.157-.21-.453-.27-.584-.287-.106-.014.068-.256.293-.364.339-.162.936-.172 1.643-.165.55.006.709.04.924.09.499.119.483.498.45 1.315-.01.245-.022.529-.022.857 0 .073-.002.152-.005.233-.011.419-.024.898.257 1.077.144.091.496.013 1.378-1.456.418-.696.73-1.515.73-1.515s.07-.146.176-.208c.109-.064.255-.045.255-.045l1.98-.012s.595-.07.69.194c.102.277-.221.923-1.03 1.98-.767 1.005-1.14 1.374-1.106 1.701.025.24.267.455.733.88.972.885 1.233 1.351 1.296 1.463l.011.021c.436.71-.483.765-.483.765l-1.759.024s-.377.074-.874-.261c-.26-.176-.515-.462-.758-.735-.37-.416-.712-.801-1.004-.71-.49.153-.475 1.189-.475 1.189s.004.222-.107.34z" fill="#999"/></svg>