<svg width="24" height="24" viewBox="0 0 24 24" fill="none" xmlns="http://www.w3.org/2000/svg"><path fill-rule="evenodd" clip-rule="evenodd" d="M12 24c6.627 0 12-5.373 12-12S18.627 0 12 0 0 5.373 0 12s5.373 12 12 12zm6.376-15.391a1.671 1.671 0 00-1.164-1.195c-1.026-.283-5.143-.283-5.143-.283s-4.117 0-5.144.283A1.671 1.671 0 005.76 8.609c-.275 1.054-.275 3.254-.275 3.254s0 2.2.275 3.254a1.67 1.67 0 001.164 1.195c1.027.282 5.144.282 5.144.282s4.117 0 5.143-.282a1.672 1.672 0 001.164-1.195c.275-1.055.275-3.254.275-3.254s0-2.2-.275-3.254zm-7.542 5.517v-4.114l3.292 2.057-3.292 2.057z" fill="#999"/></svg>