<svg width="40" height="40" viewBox="0 0 40 40" fill="none" xmlns="http://www.w3.org/2000/svg"><rect x="21.68" y="24.303" width="3.71" height="10.544" rx="1.5" transform="rotate(-45 21.68 24.303)" stroke="#343434"/><path d="M13.757 13.757l4.33 4.33m-5.597-3.544l-2.784-3.469 1.368-1.368 3.469 2.785-2.052 2.052z" stroke="#343434"/><mask id="a" fill="#fff"><path fill-rule="evenodd" clip-rule="evenodd" d="M28.089 8.794l-3.52 4.458.68 2.041 2.04.68 4.46-3.52a5.775 5.775 0 01-7.935 7.045l-.097.079a1.998 1.998 0 00-.303.309l-7.922 10.033a3.082 3.082 0 11-4.466-4.213l9.683-8.607c.079-.07.152-.146.219-.228l.116-.142a5.774 5.774 0 017.045-7.935z"/></mask><path d="M24.569 13.252l-.785-.62-.335.425.171.512.949-.317zm3.52-4.458l.785.62.884-1.12-1.355-.45-.314.95zm-2.84 6.5l-.949.316.158.474.475.158.316-.949zm2.04.68l-.316.948.513.17.423-.334-.62-.784zm4.46-3.52l.949-.315-.449-1.355-1.12.884.62.785zm-7.936 7.044l.426-.905-.571-.268-.488.4.633.773zm-.096.079l.633.774-.633-.774zm-.303.309l.784.62-.785-.62zm-7.922 10.033l.785.62-.785-.62zm-4.466-4.213l-.665-.747.665.747zm9.683-8.607l-.665-.747.665.747zm.219-.228l.774.633-.774-.633zm.116-.142l.774.633.4-.488-.269-.57-.905.425zm4.31-2.857l3.52-4.459-1.57-1.239-3.52 4.459 1.57 1.24zm.844 1.105l-.68-2.04-1.898.632.68 2.04 1.898-.632zm1.408.048l-2.04-.68-.633 1.897 2.04.68.633-1.897zm3.523-3.357l-4.459 3.52 1.24 1.57 4.458-3.52-1.24-1.57zm-.071 7.393a6.772 6.772 0 001.64-6.922l-1.899.629a4.772 4.772 0 01-1.155 4.88l1.414 1.413zm-7.67 1.342a6.774 6.774 0 007.67-1.341l-1.414-1.415a4.774 4.774 0 01-5.405.946l-.851 1.81zm.962-.052l.096-.079-1.266-1.548-.096.08 1.266 1.547zm-.152.154a.996.996 0 01.152-.154l-1.266-1.548a3 3 0 00-.455.463l1.57 1.24zM16.277 30.54l7.921-10.034-1.57-1.239-7.92 10.034 1.569 1.239zm-6.09.357a4.082 4.082 0 006.09-.357l-1.57-1.24a2.082 2.082 0 01-3.106.183l-1.414 1.414zm.175-5.937a4.082 4.082 0 00-.175 5.937l1.414-1.414a2.082 2.082 0 01.09-3.028l-1.33-1.495zm9.682-8.607l-9.683 8.607 1.33 1.495 9.682-8.607-1.329-1.495zm.11-.114c-.034.04-.07.079-.11.114l1.33 1.495c.117-.106.228-.22.328-.343l-1.548-1.266zm.116-.142l-.116.142 1.548 1.266.116-.142-1.548-1.266zm1.21-6.612a6.774 6.774 0 00-1.34 7.67l1.81-.85a4.774 4.774 0 01.945-5.405l-1.414-1.415zm6.923-1.64a6.772 6.772 0 00-6.922 1.64l1.414 1.415a4.772 4.772 0 014.88-1.156l.628-1.899z" fill="#343434" mask="url(#a)"/></svg>