<svg width="21" height="17" viewBox="0 0 21 17" fill="none" xmlns="http://www.w3.org/2000/svg">
<path d="M7.03679 12.6991H3.40869C2.30412 12.6991 1.40869 11.8036 1.40869 10.6991V2.51074C1.40869 1.40617 2.30412 0.510742 3.40869 0.510742H17.5918C18.6964 0.510742 19.5918 1.40617 19.5918 2.51074V10.6991C19.5918 11.8036 18.6964 12.6991 17.5918 12.6991H13.0892C12.6255 12.6991 12.1763 12.8601 11.8183 13.1548L8.36105 16.0001" stroke="#343434"/>
<path d="M5.4843 7.02217C5.4843 6.7235 5.60164 6.4515 5.8363 6.20617C6.07097 5.96083 6.3803 5.83817 6.7643 5.83817C7.09497 5.83817 7.3723 5.96083 7.5963 6.20617C7.8203 6.4515 7.9323 6.7235 7.9323 7.02217C7.9323 7.3635 7.8203 7.66217 7.5963 7.91817C7.3723 8.17417 7.09497 8.30217 6.7643 8.30217C6.3803 8.30217 6.07097 8.17417 5.8363 7.91817C5.60164 7.66217 5.4843 7.3635 5.4843 7.02217ZM9.27493 7.02217C9.27493 6.7235 9.39226 6.4515 9.62693 6.20617C9.8616 5.96083 10.1709 5.83817 10.5549 5.83817C10.8856 5.83817 11.1629 5.96083 11.3869 6.20617C11.6109 6.4515 11.7229 6.7235 11.7229 7.02217C11.7229 7.3635 11.6109 7.66217 11.3869 7.91817C11.1629 8.17417 10.8856 8.30217 10.5549 8.30217C10.1709 8.30217 9.8616 8.17417 9.62693 7.91817C9.39226 7.66217 9.27493 7.3635 9.27493 7.02217ZM13.0656 7.02217C13.0656 6.7235 13.1829 6.4515 13.4176 6.20617C13.6522 5.96083 13.9616 5.83817 14.3456 5.83817C14.6762 5.83817 14.9536 5.96083 15.1776 6.20617C15.4016 6.4515 15.5136 6.7235 15.5136 7.02217C15.5136 7.3635 15.4016 7.66217 15.1776 7.91817C14.9536 8.17417 14.6762 8.30217 14.3456 8.30217C13.9616 8.30217 13.6522 8.17417 13.4176 7.91817C13.1829 7.66217 13.0656 7.3635 13.0656 7.02217Z" fill="#343434"/>
</svg>
