<svg width="298" height="36" viewBox="0 0 298 36" fill="none" xmlns="http://www.w3.org/2000/svg">
<path d="M49.4392 10.2621V15.6115L56.9488 15.5933L56.9851 35.2625L62.6946 35.2443L62.6582 15.5933L70.1677 15.5751L70.1496 10.2075L49.4392 10.2621Z" fill="#343434"/>
<path d="M79.4775 35.2261L73.7681 35.2443L73.7317 10.2257C74.1681 10.2257 75.3682 10.2257 77.3319 10.1893C79.332 10.153 80.6958 10.153 81.3685 10.153C84.896 10.153 87.478 10.9354 89.0963 12.5002C90.7145 14.0286 91.4964 16.03 91.4964 18.4318C91.4964 20.7608 90.6418 22.7623 88.969 24.3999C87.2962 26.0193 85.0415 26.8381 82.2595 26.8381C81.0049 26.8381 80.0775 26.8017 79.4775 26.7289V35.2261ZM79.4411 15.557L79.4593 21.2703C80.3503 21.3795 81.2412 21.4523 82.0595 21.4523C83.8778 21.4523 85.4233 20.5607 85.4051 18.3772C85.4051 16.4485 84.2596 15.4842 81.9322 15.4842C81.8413 15.4842 81.023 15.5206 79.4411 15.557Z" fill="#343434"/>
<path d="M90.6599 35.2079L101.006 10.1711H106.115L116.552 35.1715L110.443 35.1897L108.37 29.9313L98.4786 29.9495L96.4057 35.2079H90.6599ZM103.424 17.4857L100.606 24.5637H106.224L103.424 17.4857Z" fill="#343434"/>
<path d="M134.59 35.1352L134.572 25.055L125.462 25.0732L125.48 35.1534H119.771L119.716 10.1348L125.444 10.1166L125.462 19.7055L134.572 19.6873L134.554 10.0984H140.263L140.299 35.117L134.59 35.1352Z" fill="#343434"/>
<path d="M166.192 32.6061C165.446 33.4612 164.301 34.1891 162.792 34.7167C161.301 35.2626 159.719 35.4991 158.046 35.5173C154.155 35.5173 151.009 34.3528 148.573 31.9874C146.136 29.5856 144.918 26.4924 144.918 22.5986C144.918 18.8504 146.045 15.739 148.336 13.3008C150.609 10.8626 153.828 9.64355 157.973 9.64355C161.155 9.64355 164.046 10.6989 165.628 12.2455L163.101 16.5396C161.428 15.5025 159.701 15.0112 157.991 15.0112C155.955 15.0112 154.282 15.7026 152.955 17.0127C151.627 18.3409 150.991 20.1968 151.009 22.5986C151.009 24.8185 151.737 26.638 153.118 28.0572C154.519 29.4401 156.337 30.1679 158.592 30.1497C160.592 30.1497 162.41 29.5311 164.01 28.312L166.192 32.6061Z" fill="#343434"/>
<path d="M175.847 35.0624L170.137 35.0806L170.101 10.062C170.537 10.062 171.738 10.062 173.701 10.0256C175.701 9.98926 177.065 9.98926 177.738 9.98926C181.265 9.98926 183.847 10.7717 185.466 12.3365C187.066 13.8649 187.866 15.8664 187.866 18.2681C187.866 20.5971 187.011 22.5986 185.338 24.2362C183.666 25.8556 181.411 26.6744 178.629 26.6744C177.374 26.6744 176.447 26.638 175.847 26.5652V35.0624ZM175.811 15.3933V21.1066C176.701 21.2158 177.592 21.2886 178.411 21.2886C180.229 21.2886 181.775 20.397 181.756 18.2136C181.756 16.2848 180.611 15.3205 178.283 15.3205C178.192 15.3205 177.374 15.3569 175.811 15.3933Z" fill="#343434"/>
<path d="M191.339 35.0261L191.302 10.0075L206.122 9.97107L206.14 15.3387L197.03 15.3569V19.7602L205.067 19.742L205.085 25.1096H197.03L197.048 29.6584L206.522 29.6402V35.0079L191.339 35.0261Z" fill="#343434"/>
<path d="M230.159 32.4968C229.414 33.352 228.268 34.0798 226.777 34.6075C225.268 35.1351 223.704 35.3899 222.032 35.4081C218.14 35.4081 214.995 34.2436 212.558 31.8782C210.122 29.4764 208.904 26.3832 208.904 22.4894C208.904 18.7411 210.031 15.6297 212.322 13.1916C214.613 10.7534 217.813 9.5343 221.959 9.5343C225.141 9.5343 228.032 10.5896 229.614 12.1362L227.086 16.4303C225.414 15.3932 223.686 14.9019 221.977 14.9019C219.941 14.9019 218.268 15.5934 216.94 16.9034C215.613 18.2317 214.977 20.0876 214.977 22.4894C214.977 24.7092 215.704 26.5287 217.086 27.948C218.486 29.3308 220.304 30.0586 222.559 30.0404C224.559 30.0404 226.377 29.4218 227.977 28.2027L230.159 32.4968Z" fill="#343434"/>
<path d="M254.888 9.89819L246.524 29.0033C244.779 33.0063 242.524 34.935 239.215 34.9532C237.815 34.9532 236.142 34.4255 235.433 33.8615L237.433 29.0033C238.033 29.4036 238.615 29.6037 239.178 29.6037C240.106 29.6037 240.706 29.2762 241.033 28.603L241.36 27.857L230.578 9.97097L237.051 9.95278L244.106 22.1619L249.161 9.93458L254.888 9.89819Z" fill="#343434"/>
<path d="M263.034 34.8986L257.325 34.9168L257.288 9.89822C257.725 9.89822 258.925 9.89822 260.889 9.86183C262.889 9.82544 264.252 9.82544 264.925 9.82544C268.453 9.82544 271.035 10.6078 272.653 12.1726C274.271 13.701 275.053 15.7025 275.053 18.1043C275.053 20.4333 274.198 22.4348 272.526 24.0724C270.853 25.6918 268.598 26.5106 265.816 26.5106C264.562 26.5106 263.634 26.4742 263.034 26.4014V34.8986ZM262.998 15.2477L263.016 20.961C263.907 21.0702 264.798 21.1429 265.616 21.1429C267.434 21.1429 268.98 20.2514 268.962 18.0679C268.962 16.1392 267.816 15.1749 265.489 15.1749C265.398 15.1749 264.561 15.2113 262.998 15.2477Z" fill="#343434"/>
<path d="M298 32.3877C297.254 33.2429 296.109 33.9707 294.618 34.4983C293.127 35.0442 291.545 35.2807 289.872 35.2989C285.981 35.2989 282.835 34.1344 280.399 31.769C277.962 29.3855 276.744 26.2741 276.744 22.3802C276.744 18.632 277.871 15.5206 280.163 13.0824C282.454 10.6443 285.654 9.42517 289.799 9.42517C292.981 9.42517 295.873 10.4805 297.454 12.0271L294.927 16.3212C293.254 15.2841 291.527 14.7928 289.818 14.7928C287.781 14.7928 286.108 15.4842 284.781 16.7943C283.454 18.1225 282.817 19.9785 282.817 22.3802C282.817 24.6001 283.545 26.4196 284.926 27.8389C286.327 29.2217 288.145 29.9495 290.4 29.9313C292.4 29.9313 294.218 29.3127 295.818 28.0936L298 32.3877Z" fill="#343434"/>
<path d="M0 25.146L6.01855 35.0625L36.675 35.0261L43.3845 25.0732L0 25.146Z" fill="white"/>
<path d="M15.001 0L36.675 35.026L43.4936 24.9094L27.6017 0H15.001Z" fill="url(#paint0_linear)"/>
<path d="M15.0009 0L0 25.146L6.01855 35.0624L27.5653 0H15.0009Z" fill="url(#paint1_linear)"/>
<path d="M0 25.146L6.01855 35.0625L36.675 35.0261L30.5291 25.0914L0 25.146Z" fill="url(#paint2_linear)"/>
<defs>
<linearGradient id="paint0_linear" x1="20.9104" y1="-4.54883" x2="47.2993" y2="31.8247" gradientUnits="userSpaceOnUse">
<stop stop-color="#91191A"/>
<stop offset="1" stop-color="#B91A19"/>
</linearGradient>
<linearGradient id="paint1_linear" x1="25.4561" y1="-0.909767" x2="2.70481" y2="36.3769" gradientUnits="userSpaceOnUse">
<stop stop-color="#E30613"/>
<stop offset="1" stop-color="#B91A19"/>
</linearGradient>
<linearGradient id="paint2_linear" x1="-2.1592e-07" y1="31.8419" x2="42.7299" y2="31.8419" gradientUnits="userSpaceOnUse">
<stop stop-color="#681412"/>
<stop offset="1" stop-color="#360601"/>
</linearGradient>
</defs>
</svg>
