<svg width="224" height="26" viewBox="0 0 224 26" fill="none" xmlns="http://www.w3.org/2000/svg">
<path d="M37.1621 7.51237V11.4284L42.8069 11.4151L42.8342 25.8137L47.1259 25.8004L47.0985 11.4151L52.7433 11.4017L52.7296 7.47241L37.1621 7.51237Z" fill="white"/>
<path d="M59.7409 25.787L55.4492 25.8003L55.4219 7.48565C55.7499 7.48565 56.652 7.48565 58.1281 7.45901C59.6315 7.43237 60.6566 7.43237 61.1623 7.43237C63.8138 7.43237 65.7547 8.00512 66.9711 9.15062C68.1875 10.2695 68.7752 11.7346 68.7752 13.4928C68.7752 15.1978 68.1328 16.6629 66.8754 17.8617C65.618 19.0472 63.9232 19.6466 61.832 19.6466C60.889 19.6466 60.1919 19.6199 59.7409 19.5666V25.787ZM59.7135 11.3883L59.7272 15.5707C60.3969 15.6506 61.0666 15.7039 61.6817 15.7039C63.0485 15.7039 64.2102 15.0513 64.1965 13.4529C64.1965 12.041 63.3355 11.3351 61.586 11.3351C61.5177 11.3351 60.9026 11.3617 59.7135 11.3883Z" fill="white"/>
<path d="M68.1465 25.7737L75.9234 7.4458H79.764L87.6093 25.7471L83.0169 25.7604L81.4588 21.911L74.0236 21.9243L72.4655 25.7737H68.1465ZM77.7412 12.8003L75.6227 17.9817H79.846L77.7412 12.8003Z" fill="white"/>
<path d="M101.168 25.7205L101.155 18.3414L94.3073 18.3547L94.321 25.7338H90.0293L89.9883 7.41922L94.2936 7.4059L94.3073 14.4254L101.155 14.4121L101.141 7.39258H105.433L105.46 25.7072L101.168 25.7205Z" fill="white"/>
<path d="M124.923 23.8688C124.362 24.4948 123.501 25.0276 122.367 25.4139C121.246 25.8135 120.057 25.9867 118.8 26C115.875 26 113.51 25.1475 111.679 23.4159C109.847 21.6577 108.932 19.3934 108.932 16.543C108.932 13.7991 109.779 11.5214 111.501 9.73659C113.21 7.95175 115.629 7.05933 118.745 7.05933C121.137 7.05933 123.31 7.83187 124.499 8.96405L122.599 12.1075C121.342 11.3483 120.043 10.9886 118.759 10.9886C117.228 10.9886 115.971 11.4948 114.973 12.4538C113.975 13.4262 113.497 14.7848 113.51 16.543C113.51 18.168 114.057 19.4999 115.096 20.5389C116.148 21.5512 117.515 22.084 119.21 22.0707C120.713 22.0707 122.08 21.6178 123.283 20.7254L124.923 23.8688Z" fill="white"/>
<path d="M132.18 25.6673L127.889 25.6806L127.861 7.36602C128.189 7.36602 129.091 7.36602 130.568 7.33938C132.071 7.31274 133.096 7.31274 133.602 7.31274C136.253 7.31274 138.194 7.88549 139.411 9.03099C140.613 10.1498 141.215 11.615 141.215 13.3732C141.215 15.0781 140.572 16.5433 139.315 17.7421C138.057 18.9275 136.363 19.5269 134.271 19.5269C133.328 19.5269 132.631 19.5003 132.18 19.447V25.6673ZM132.153 11.2687V15.4511C132.823 15.531 133.492 15.5843 134.107 15.5843C135.474 15.5843 136.636 14.9316 136.622 13.3333C136.622 11.9214 135.761 11.2154 134.012 11.2154C133.943 11.2154 133.328 11.2421 132.153 11.2687Z" fill="white"/>
<path d="M143.826 25.6406L143.799 7.32596L154.938 7.29932L154.952 11.2286L148.104 11.242V14.4653L154.145 14.452L154.159 18.3813H148.104L148.118 21.7113L155.239 21.6979V25.6273L143.826 25.6406Z" fill="white"/>
<path d="M173.005 23.789C172.445 24.415 171.583 24.9478 170.463 25.3341C169.328 25.7203 168.153 25.9068 166.895 25.9201C163.971 25.9201 161.606 25.0677 159.775 23.3361C157.943 21.5779 157.027 19.3136 157.027 16.4631C157.027 13.7193 157.875 11.4416 159.597 9.65676C161.319 7.87191 163.725 6.97949 166.841 6.97949C169.233 6.97949 171.406 7.75204 172.595 8.88421L170.695 12.0277C169.438 11.2684 168.139 10.9088 166.854 10.9088C165.324 10.9088 164.066 11.415 163.068 12.374C162.071 13.3463 161.592 14.7049 161.592 16.4631C161.592 18.0881 162.139 19.4201 163.178 20.4591C164.23 21.4714 165.597 22.0041 167.292 21.9908C168.795 21.9908 170.162 21.538 171.365 20.6455L173.005 23.789Z" fill="white"/>
<path d="M191.594 7.24609L185.307 21.2318C183.995 24.1621 182.3 25.574 179.812 25.5874C178.76 25.5874 177.503 25.2011 176.97 24.7882L178.473 21.2318C178.924 21.5248 179.361 21.6714 179.785 21.6714C180.482 21.6714 180.933 21.4316 181.179 20.9388L181.425 20.3927L173.32 7.29937L178.186 7.28605L183.489 16.2236L187.289 7.27273L191.594 7.24609Z" fill="white"/>
<path d="M197.717 25.5475L193.426 25.5608L193.398 7.24615C193.726 7.24615 194.629 7.24615 196.105 7.21951C197.608 7.19287 198.633 7.19287 199.139 7.19287C201.79 7.19287 203.731 7.76562 204.948 8.91112C206.164 10.03 206.752 11.4951 206.752 13.2533C206.752 14.9583 206.109 16.4234 204.852 17.6222C203.595 18.8077 201.9 19.4071 199.809 19.4071C198.866 19.4071 198.168 19.3804 197.717 19.3271V25.5475ZM197.69 11.1622L197.704 15.3445C198.373 15.4245 199.043 15.4777 199.658 15.4777C201.025 15.4777 202.187 14.8251 202.173 13.2267C202.173 11.8148 201.312 11.1089 199.563 11.1089C199.494 11.1089 198.866 11.1355 197.69 11.1622Z" fill="white"/>
<path d="M224.001 23.7092C223.441 24.3352 222.58 24.868 221.459 25.2542C220.338 25.6538 219.149 25.827 217.892 25.8403C214.967 25.8403 212.602 24.9878 210.771 23.2563C208.939 21.5114 208.023 19.2337 208.023 16.3833C208.023 13.6394 208.871 11.3618 210.593 9.57692C212.315 7.79208 214.721 6.89966 217.837 6.89966C220.229 6.89966 222.402 7.6722 223.591 8.80438L221.691 11.9478C220.434 11.1886 219.135 10.829 217.851 10.829C216.32 10.829 215.062 11.3351 214.065 12.2941C213.067 13.2665 212.588 14.6251 212.588 16.3833C212.588 18.0083 213.135 19.3403 214.174 20.3792C215.226 21.3915 216.593 21.9243 218.288 21.911C219.791 21.911 221.158 21.4581 222.361 20.5657L224.001 23.7092Z" fill="white"/>
<path d="M11.2754 0L27.5673 25.6405L32.6927 18.2347L20.7471 0H11.2754Z" fill="white"/>
<path d="M11.2759 0L0 18.4079L4.52401 25.6671L20.7202 0H11.2759Z" fill="white"/>
<path d="M0 18.4079L4.52401 25.6671L27.5678 25.6405L22.9481 18.3679L0 18.4079Z" fill="white"/>
</svg>
