<svg width="12" height="16" viewBox="0 0 12 16" fill="none" xmlns="http://www.w3.org/2000/svg">
<mask id="path-1-inside-1" fill="white">
<path fill-rule="evenodd" clip-rule="evenodd" d="M5.86691 16C5.86691 16 11.7336 10.8308 11.7336 5.66154C11.7336 2.53476 9.10698 0 5.86691 0C2.62684 0 0.000244141 2.53476 0.000244141 5.66154C0.000244141 10.8308 5.86691 16 5.86691 16ZM5.7561 7.46666C6.67177 7.46666 7.41407 6.75031 7.41407 5.86666C7.41407 4.983 6.67177 4.26666 5.7561 4.26666C4.84043 4.26666 4.09813 4.983 4.09813 5.86666C4.09813 6.75031 4.84043 7.46666 5.7561 7.46666Z"/>
</mask>
<path d="M5.86691 16L5.20581 16.7503L5.86691 17.3328L6.52801 16.7503L5.86691 16ZM10.7336 5.66154C10.7336 7.90663 9.43789 10.2691 8.00278 12.1659C7.30044 13.0941 6.59596 13.8703 6.06679 14.4143C5.80276 14.6857 5.58381 14.8978 5.43252 15.0406C5.35691 15.112 5.29831 15.166 5.25956 15.2013C5.24018 15.2189 5.22578 15.2319 5.2167 15.24C5.21216 15.2441 5.20895 15.2469 5.20712 15.2485C5.20621 15.2493 5.20564 15.2499 5.20542 15.25C5.20531 15.2501 5.20528 15.2502 5.20535 15.2501C5.20538 15.2501 5.2055 15.25 5.20551 15.25C5.20565 15.2498 5.20581 15.2497 5.86691 16C6.52801 16.7503 6.52822 16.7501 6.52844 16.7499C6.52855 16.7498 6.5288 16.7496 6.52901 16.7494C6.52943 16.749 6.52994 16.7486 6.53054 16.7481C6.53174 16.747 6.5333 16.7456 6.5352 16.7439C6.53901 16.7405 6.54422 16.7359 6.55078 16.73C6.5639 16.7183 6.58244 16.7016 6.60603 16.6801C6.65322 16.6372 6.72066 16.575 6.80547 16.4949C6.97501 16.3349 7.2144 16.1028 7.50037 15.8088C8.0712 15.222 8.83339 14.3828 9.5977 13.3726C11.0959 11.3924 12.7336 8.58568 12.7336 5.66154H10.7336ZM5.86691 1C8.58854 1 10.7336 3.12029 10.7336 5.66154H12.7336C12.7336 1.94922 9.62542 -1 5.86691 -1V1ZM1.00024 5.66154C1.00024 3.12029 3.14528 1 5.86691 1V-1C2.1084 -1 -0.999756 1.94922 -0.999756 5.66154H1.00024ZM5.86691 16C6.52801 15.2497 6.52817 15.2498 6.52831 15.25C6.52832 15.25 6.52844 15.2501 6.52847 15.2501C6.52854 15.2502 6.52851 15.2501 6.5284 15.25C6.52818 15.2499 6.52761 15.2493 6.5267 15.2485C6.52487 15.2469 6.52166 15.2441 6.51712 15.24C6.50804 15.2319 6.49364 15.2189 6.47426 15.2013C6.43551 15.166 6.37691 15.112 6.3013 15.0406C6.15001 14.8978 5.93106 14.6857 5.66704 14.4143C5.13786 13.8703 4.43339 13.0941 3.73104 12.1659C2.29593 10.2691 1.00024 7.90663 1.00024 5.66154H-0.999756C-0.999756 8.58568 0.637893 11.3924 2.13612 13.3726C2.90044 14.3828 3.66262 15.222 4.23345 15.8088C4.51942 16.1028 4.75881 16.3349 4.92835 16.4949C5.01316 16.575 5.0806 16.6372 5.12779 16.6801C5.15138 16.7016 5.16992 16.7183 5.18304 16.73C5.1896 16.7359 5.19481 16.7405 5.19862 16.7439C5.20052 16.7456 5.20208 16.747 5.20328 16.7481C5.20388 16.7486 5.20439 16.749 5.20481 16.7494C5.20502 16.7496 5.20527 16.7498 5.20538 16.7499C5.20561 16.7501 5.20581 16.7503 5.86691 16ZM6.41407 5.86666C6.41407 6.16478 6.15333 6.46666 5.7561 6.46666V8.46666C7.19021 8.46666 8.41407 7.33585 8.41407 5.86666H6.41407ZM5.7561 5.26666C6.15333 5.26666 6.41407 5.56854 6.41407 5.86666H8.41407C8.41407 4.39747 7.19021 3.26666 5.7561 3.26666V5.26666ZM5.09813 5.86666C5.09813 5.56854 5.35887 5.26666 5.7561 5.26666V3.26666C4.32199 3.26666 3.09813 4.39747 3.09813 5.86666H5.09813ZM5.7561 6.46666C5.35887 6.46666 5.09813 6.16478 5.09813 5.86666H3.09813C3.09813 7.33585 4.32199 8.46666 5.7561 8.46666V6.46666Z" fill="#343434" mask="url(#path-1-inside-1)"/>
</svg>
