<svg width="10" height="17" viewBox="0 0 10 17" fill="none" xmlns="http://www.w3.org/2000/svg">
<mask id="path-1-inside-1" fill="white">
<path fill-rule="evenodd" clip-rule="evenodd" d="M4.58333 16.9617C4.58333 16.9617 9.16667 11.8041 9.16667 6.64652C9.16667 3.52678 7.11464 0.997742 4.58333 0.997742C2.05203 0.997742 0 3.52678 0 6.64652C0 11.8041 4.58333 16.9617 4.58333 16.9617ZM4.49683 8.44748C5.2122 8.44748 5.79212 7.73276 5.79212 6.8511C5.79212 5.96945 5.2122 5.25473 4.49683 5.25473C3.78146 5.25473 3.20154 5.96945 3.20154 6.8511C3.20154 7.73276 3.78146 8.44748 4.49683 8.44748Z"/>
</mask>
<path d="M4.58333 16.9617L3.83584 17.6259L4.58333 18.4671L5.33083 17.6259L4.58333 16.9617ZM8.16667 6.64652C8.16667 8.95744 7.12831 11.3487 6.01465 13.2285C5.46578 14.1549 4.91596 14.9284 4.50397 15.4693C4.29834 15.7392 4.128 15.95 4.01057 16.0916C3.95189 16.1623 3.9065 16.2157 3.87662 16.2505C3.86168 16.2678 3.85063 16.2805 3.84374 16.2884C3.84029 16.2923 3.83789 16.2951 3.83656 16.2966C3.8359 16.2973 3.8355 16.2978 3.83538 16.2979C3.83532 16.298 3.83533 16.298 3.8354 16.2979C3.83544 16.2978 3.83555 16.2977 3.83557 16.2977C3.8357 16.2976 3.83584 16.2974 4.58333 16.9617C5.33083 17.6259 5.33101 17.6257 5.3312 17.6255C5.33129 17.6254 5.33151 17.6252 5.33168 17.625C5.33204 17.6246 5.33246 17.6241 5.33296 17.6235C5.33395 17.6224 5.33521 17.621 5.33675 17.6192C5.33983 17.6158 5.344 17.611 5.34922 17.605C5.35968 17.5931 5.37436 17.5762 5.39299 17.5545C5.43025 17.5112 5.48334 17.4487 5.54998 17.3684C5.6832 17.2078 5.87093 16.9753 6.09499 16.6812C6.54237 16.0938 7.13839 15.2555 7.73535 14.2479C8.91336 12.2595 10.1667 9.49317 10.1667 6.64652H8.16667ZM4.58333 1.99774C6.37721 1.99774 8.16667 3.87364 8.16667 6.64652H10.1667C10.1667 3.17993 7.85207 -0.0022583 4.58333 -0.0022583V1.99774ZM1 6.64652C1 3.87364 2.78946 1.99774 4.58333 1.99774V-0.0022583C1.3146 -0.0022583 -1 3.17993 -1 6.64652H1ZM4.58333 16.9617C5.33083 16.2974 5.33097 16.2976 5.3311 16.2977C5.33112 16.2977 5.33123 16.2978 5.33126 16.2979C5.33134 16.298 5.33135 16.298 5.33129 16.2979C5.33117 16.2978 5.33077 16.2973 5.33011 16.2966C5.32878 16.2951 5.32637 16.2923 5.32293 16.2884C5.31604 16.2805 5.30499 16.2678 5.29005 16.2505C5.26017 16.2157 5.21478 16.1623 5.1561 16.0916C5.03867 15.95 4.86833 15.7392 4.66269 15.4693C4.25071 14.9284 3.70089 14.1549 3.15202 13.2285C2.03836 11.3487 1 8.95744 1 6.64652H-1C-1 9.49317 0.253305 12.2595 1.43132 14.2479C2.02828 15.2555 2.62429 16.0938 3.07168 16.6812C3.29573 16.9753 3.48346 17.2078 3.61669 17.3684C3.68333 17.4487 3.73641 17.5112 3.77367 17.5545C3.79231 17.5762 3.80699 17.5931 3.81744 17.605C3.82267 17.611 3.82684 17.6158 3.82992 17.6192C3.83146 17.621 3.83272 17.6224 3.83371 17.6235C3.8342 17.6241 3.83463 17.6246 3.83499 17.625C3.83516 17.6252 3.83538 17.6254 3.83546 17.6255C3.83566 17.6257 3.83584 17.6259 4.58333 16.9617ZM4.79212 6.8511C4.79212 7.07717 4.71705 7.25019 4.6362 7.34984C4.55697 7.44749 4.50207 7.44748 4.49683 7.44748V9.44748C5.94962 9.44748 6.79212 8.07963 6.79212 6.8511H4.79212ZM4.49683 6.25473C4.50207 6.25473 4.55697 6.25472 4.6362 6.35237C4.71705 6.45202 4.79212 6.62504 4.79212 6.8511H6.79212C6.79212 5.62258 5.94962 4.25473 4.49683 4.25473V6.25473ZM4.20154 6.8511C4.20154 6.62504 4.2766 6.45202 4.35745 6.35237C4.43669 6.25472 4.49159 6.25473 4.49683 6.25473V4.25473C3.04404 4.25473 2.20154 5.62258 2.20154 6.8511H4.20154ZM4.49683 7.44748C4.49159 7.44748 4.43669 7.44749 4.35745 7.34984C4.2766 7.25019 4.20154 7.07717 4.20154 6.8511H2.20154C2.20154 8.07963 3.04404 9.44748 4.49683 9.44748V7.44748Z" fill="#343434" mask="url(#path-1-inside-1)"/>
</svg>
