<svg width="24" height="24" viewBox="0 0 24 24" fill="none" xmlns="http://www.w3.org/2000/svg">
<path fill-rule="evenodd" clip-rule="evenodd" d="M12 24C18.6274 24 24 18.6274 24 12C24 5.37258 18.6274 0 12 0C5.37258 0 0 5.37258 0 12C0 18.6274 5.37258 24 12 24ZM12.7997 15.5533C12.678 15.6816 12.4404 15.7075 12.4404 15.7075H11.6535C11.6535 15.7075 9.91741 15.8099 8.38807 14.2474C6.72027 12.5426 5.24759 9.16036 5.24759 9.16036C5.24759 9.16036 5.16259 8.9385 5.25468 8.83168C5.35835 8.71095 5.64104 8.70336 5.64104 8.70336L7.52197 8.69135C7.52197 8.69135 7.69906 8.7198 7.82591 8.81145C7.93087 8.8873 7.98947 9.02826 7.98947 9.02826C7.98947 9.02826 8.29341 9.78297 8.69587 10.4656C9.48211 11.7987 9.84787 12.0901 10.1145 11.9472C10.5034 11.7393 10.3868 10.063 10.3868 10.063C10.3868 10.063 10.3939 9.45491 10.1911 9.18375C10.034 8.9739 9.73776 8.91258 9.60704 8.89552C9.50079 8.88161 9.67465 8.64016 9.90003 8.53207C10.2387 8.36962 10.8363 8.36014 11.5427 8.36709C12.0933 8.37278 12.2517 8.40628 12.4668 8.45748C12.9659 8.57572 12.9503 8.95464 12.9167 9.77244C12.9066 10.017 12.895 10.3008 12.895 10.6287C12.895 10.7024 12.8928 10.7809 12.8905 10.8617C12.8789 11.2807 12.8655 11.7604 13.1468 11.939C13.291 12.03 13.6432 11.9523 14.5248 10.4833C14.9427 9.78676 15.2556 8.96821 15.2556 8.96821C15.2556 8.96821 15.3245 8.8222 15.4308 8.75962C15.5396 8.69578 15.6864 8.71537 15.6864 8.71537L17.6659 8.70336C17.6659 8.70336 18.2609 8.6332 18.3568 8.89741C18.4579 9.17364 18.1347 9.81963 17.3259 10.8777C16.5587 11.8817 16.1853 12.2514 16.2196 12.5783C16.2447 12.8172 16.4873 13.0332 16.9531 13.4573C17.9253 14.3433 18.1859 14.8095 18.2485 14.9214C18.2537 14.9307 18.2575 14.9376 18.2602 14.942C18.6962 15.6519 17.7766 15.7075 17.7766 15.7075L16.0181 15.7315C16.0181 15.7315 15.6407 15.8048 15.1436 15.4698C14.8832 15.2945 14.6287 15.0081 14.3864 14.7354C14.0162 14.3188 13.6743 13.934 13.3824 14.0249C12.8924 14.1779 12.9072 15.2138 12.9072 15.2138C12.9072 15.2138 12.9111 15.4357 12.7997 15.5533Z" fill="#999999"/>
</svg>
