<svg width="24" height="24" viewBox="0 0 24 24" fill="none" xmlns="http://www.w3.org/2000/svg">
<path fill-rule="evenodd" clip-rule="evenodd" d="M12 24C18.6274 24 24 18.6274 24 12C24 5.37258 18.6274 0 12 0C5.37258 0 0 5.37258 0 12C0 18.6274 5.37258 24 12 24ZM18.3763 8.60902C18.2249 8.02736 17.7788 7.56932 17.2123 7.41387C16.1856 7.13136 12.0686 7.13136 12.0686 7.13136C12.0686 7.13136 7.95152 7.13136 6.92482 7.41387C6.35832 7.56932 5.91218 8.02736 5.76077 8.60902C5.48571 9.66321 5.48571 11.8628 5.48571 11.8628C5.48571 11.8628 5.48571 14.0623 5.76077 15.1166C5.91218 15.6982 6.35832 16.1563 6.92482 16.3118C7.95152 16.5942 12.0686 16.5942 12.0686 16.5942C12.0686 16.5942 16.1856 16.5942 17.2123 16.3118C17.7788 16.1563 18.2249 15.6982 18.3763 15.1166C18.6514 14.0623 18.6514 11.8628 18.6514 11.8628C18.6514 11.8628 18.6514 9.66321 18.3763 8.60902ZM10.8343 14.1258V10.0115L14.1257 12.0687L10.8343 14.1258Z" fill="#999999"/>
</svg>
