<svg width="72" height="72" viewBox="0 0 72 72" fill="none" xmlns="http://www.w3.org/2000/svg">
<path d="M36 63L8.4375 53.4375V10.6875L36 21.375M36 63V21.375M36 63L63.5625 53.4375V10.6875L36 21.375" stroke="#D62631" stroke-width="2"/>
<path d="M42.75 55.125V41.0625L57.375 36V50.0625L42.75 55.125Z" fill="#D62631"/>
<path fill-rule="evenodd" clip-rule="evenodd" d="M14.625 39.4498L29.25 44.8664V42.2671L14.625 36.8505V39.4498Z" fill="#343434"/>
<path fill-rule="evenodd" clip-rule="evenodd" d="M14.625 31.8493L29.25 37.266V34.6667L14.625 29.25V31.8493Z" fill="#343434"/>
<path fill-rule="evenodd" clip-rule="evenodd" d="M14.625 23.9743L29.25 29.391V26.7917L14.625 21.375V23.9743Z" fill="#343434"/>
<path fill-rule="evenodd" clip-rule="evenodd" d="M57.375 23.9743L42.75 29.391V26.7917L57.375 21.375V23.9743Z" fill="#343434"/>
<path fill-rule="evenodd" clip-rule="evenodd" d="M57.375 30.7243L42.75 36.141V33.5417L57.375 28.125V30.7243Z" fill="#343434"/>
</svg>
