<svg width="40" height="40" viewBox="0 0 40 40" fill="none" xmlns="http://www.w3.org/2000/svg">
<rect x="21.6795" y="24.3028" width="3.70995" height="10.5441" rx="1.5" transform="rotate(-45 21.6795 24.3028)" stroke="#343434"/>
<path d="M13.7573 13.7572L18.0864 18.0863" stroke="#343434"/>
<path d="M12.4906 14.5429L9.70605 11.0743L11.0742 9.70613L14.5428 12.4906L12.4906 14.5429Z" stroke="#343434"/>
<mask id="path-4-inside-1" fill="white">
<path fill-rule="evenodd" clip-rule="evenodd" d="M28.0888 8.79375L24.5687 13.2525L25.249 15.2932L27.2897 15.9735L31.7485 12.4534C32.4129 14.4596 31.947 16.7581 30.3508 18.3544C28.5827 20.1224 25.9529 20.5037 23.8133 19.4981L23.7168 19.577C23.6048 19.6686 23.5031 19.7721 23.4135 19.8856L15.4921 29.9194C14.3491 31.3673 12.1985 31.4933 10.8941 30.1889C9.64026 28.9351 9.70052 26.8844 11.0258 25.7063L20.7087 17.0993C20.7877 17.0291 20.861 16.9528 20.9279 16.871L21.0441 16.7289C20.0385 14.5893 20.4198 11.9595 22.1879 10.1914C23.7841 8.59519 26.0826 8.12931 28.0888 8.79375Z"/>
</mask>
<path d="M24.5687 13.2525L23.7838 12.6329L23.4493 13.0566L23.62 13.5687L24.5687 13.2525ZM28.0888 8.79375L28.8737 9.4134L29.758 8.29319L28.4032 7.84446L28.0888 8.79375ZM25.249 15.2932L24.3003 15.6095L24.4584 16.0838L24.9327 16.2419L25.249 15.2932ZM27.2897 15.9735L26.9735 16.9222L27.4856 17.0929L27.9093 16.7584L27.2897 15.9735ZM31.7485 12.4534L32.6977 12.139L32.249 10.7842L31.1288 11.6685L31.7485 12.4534ZM23.8133 19.4981L24.2386 18.593L23.668 18.3249L23.18 18.7241L23.8133 19.4981ZM23.7168 19.577L24.35 20.351L24.35 20.351L23.7168 19.577ZM23.4135 19.8856L24.1984 20.5053L24.1984 20.5053L23.4135 19.8856ZM15.4921 29.9194L16.277 30.539L15.4921 29.9194ZM11.0258 25.7063L10.3615 24.9589L11.0258 25.7063ZM20.7087 17.0993L20.0444 16.3519L20.7087 17.0993ZM20.9279 16.871L21.7019 17.5042L20.9279 16.871ZM21.0441 16.7289L21.8181 17.3622L22.2173 16.8742L21.9492 16.3036L21.0441 16.7289ZM25.3536 13.8721L28.8737 9.4134L27.3039 8.17411L23.7838 12.6329L25.3536 13.8721ZM26.1976 14.977L25.5174 12.9363L23.62 13.5687L24.3003 15.6095L26.1976 14.977ZM27.6059 15.0248L25.5652 14.3446L24.9327 16.2419L26.9735 16.9222L27.6059 15.0248ZM31.1288 11.6685L26.67 15.1886L27.9093 16.7584L32.3681 13.2383L31.1288 11.6685ZM31.0579 19.0615C32.9317 17.1877 33.4765 14.4902 32.6977 12.139L30.7992 12.7678C31.3494 14.429 30.9623 16.3286 29.6437 17.6472L31.0579 19.0615ZM23.3879 20.4031C25.8969 21.5823 28.9824 21.137 31.0579 19.0615L29.6437 17.6472C28.183 19.1079 26.009 19.4251 24.2386 18.593L23.3879 20.4031ZM24.35 20.351L24.4465 20.272L23.18 18.7241L23.0835 18.8031L24.35 20.351ZM24.1984 20.5053C24.2432 20.4485 24.294 20.3968 24.35 20.351L23.0836 18.8031C22.9156 18.9405 22.7631 19.0957 22.6286 19.266L24.1984 20.5053ZM16.277 30.539L24.1984 20.5053L22.6286 19.266L14.7073 29.2997L16.277 30.539ZM10.187 30.896C11.9147 32.6237 14.763 32.4567 16.277 30.539L14.7073 29.2997C13.9351 30.2778 12.4824 30.363 11.6012 29.4818L10.187 30.896ZM10.3615 24.9589C8.60612 26.5192 8.5263 29.2353 10.187 30.896L11.6012 29.4818C10.7542 28.6348 10.7949 27.2495 11.6902 26.4537L10.3615 24.9589ZM20.0444 16.3519L10.3615 24.9589L11.6902 26.4537L21.3731 17.8467L20.0444 16.3519ZM20.1539 16.2377C20.1205 16.2786 20.0838 16.3168 20.0444 16.3519L21.3731 17.8467C21.4915 17.7414 21.6015 17.6269 21.7019 17.5042L20.1539 16.2377ZM20.2702 16.0957L20.1539 16.2377L21.7019 17.5042L21.8181 17.3622L20.2702 16.0957ZM21.4808 9.48431C19.4052 11.5598 18.9599 14.6453 20.1391 17.1543L21.9492 16.3036C21.1171 14.5332 21.4343 12.3592 22.895 10.8985L21.4808 9.48431ZM28.4032 7.84446C26.052 7.06576 23.3545 7.61052 21.4808 9.48431L22.895 10.8985C24.2136 9.57987 26.1132 9.19285 27.7744 9.74304L28.4032 7.84446Z" fill="#343434" mask="url(#path-4-inside-1)"/>
</svg>
