<svg width="72" height="72" viewBox="0 0 72 72" fill="none" xmlns="http://www.w3.org/2000/svg"><path d="M36 63L8.437 53.437v-42.75L36 21.376M36 63V21.375M36 63l27.563-9.563v-42.75L36 21.376" stroke="#D62631" stroke-width="2"/><path d="M42.75 55.125V41.062L57.375 36v14.063L42.75 55.124z" fill="#D62631"/><path fill-rule="evenodd" clip-rule="evenodd" d="M14.625 39.45l14.625 5.416v-2.599L14.625 36.85v2.6zm0-7.6l14.625 5.416v-2.6L14.625 29.25v2.6zm0-7.876l14.625 5.417v-2.6l-14.625-5.416v2.6zm42.75 0L42.75 29.391v-2.6l14.625-5.416v2.6zm0 6.75L42.75 36.141v-2.6l14.625-5.416v2.6z" fill="#343434"/></svg>