<svg width="144" height="18" viewBox="0 0 144 18" fill="none" xmlns="http://www.w3.org/2000/svg"><path d="M23.89 4.959v2.585l3.63-.009.017 9.505 2.759-.01-.018-9.495 3.63-.009-.01-2.593-10.007.026zm14.515 12.063l-2.758.009-.018-12.09c.21 0 .79 0 1.74-.017.966-.018 1.625-.018 1.95-.018 1.705 0 2.952.378 3.734 1.134.782.739 1.16 1.706 1.16 2.867 0 1.125-.413 2.092-1.221 2.884-.808.782-1.898 1.178-3.242 1.178-.606 0-1.055-.018-1.345-.053v4.106zm-.017-9.505l.009 2.761c.43.053.86.088 1.256.088.879 0 1.626-.43 1.617-1.486 0-.932-.554-1.398-1.678-1.398-.044 0-.44.018-1.204.035zm5.421 9.496l4.999-12.098h2.469l5.043 12.08-2.952.01-1.002-2.542-4.78.01-1 2.54h-2.777zm6.168-8.564l-1.362 3.42h2.715l-1.353-3.42zm15.06 8.529l-.009-4.87-4.402.008.009 4.87h-2.759L57.85 4.898l2.767-.008.01 4.633 4.401-.009-.009-4.633h2.76l.017 12.09-2.76.008zm15.27-1.222c-.36.413-.913.765-1.643 1.02-.72.264-1.484.378-2.293.387-1.88 0-3.4-.563-4.578-1.706-1.177-1.16-1.766-2.655-1.766-4.537 0-1.811.545-3.315 1.652-4.493 1.099-1.178 2.654-1.767 4.657-1.767 1.538 0 2.935.51 3.699 1.257l-1.221 2.075c-.809-.5-1.643-.738-2.47-.738-.983 0-1.792.334-2.433.967-.642.642-.949 1.538-.94 2.7 0 1.072.351 1.951 1.019 2.637.677.668 1.555 1.02 2.645 1.01.966 0 1.845-.298 2.618-.887l1.054 2.075zm4.667 1.187l-2.76.009-.017-12.09c.211 0 .791 0 1.74-.017.966-.018 1.625-.018 1.95-.018 1.705 0 2.953.378 3.735 1.134.773.739 1.16 1.706 1.16 2.867 0 1.125-.413 2.092-1.222 2.883-.808.783-1.898 1.179-3.242 1.179-.606 0-1.054-.018-1.344-.053v4.106zm-.018-9.505V10.2c.43.053.861.088 1.257.088.878 0 1.625-.43 1.616-1.486 0-.932-.553-1.398-1.678-1.398-.044 0-.44.018-1.195.035zm7.503 9.487l-.018-12.09 7.161-.017.01 2.594-4.403.009v2.128l3.884-.01.008 2.595H95.21l.009 2.198 4.578-.01v2.595l-7.337.008zm18.76-1.222c-.361.413-.914.765-1.635 1.02a7.09 7.09 0 01-2.293.387c-1.88 0-3.4-.563-4.578-1.706-1.177-1.16-1.766-2.655-1.766-4.537 0-1.81.545-3.314 1.652-4.493 1.107-1.178 2.654-1.767 4.657-1.767 1.538 0 2.935.51 3.699 1.257l-1.221 2.075c-.809-.5-1.643-.738-2.469-.738-.984 0-1.793.334-2.434.967-.642.642-.949 1.539-.949 2.7 0 1.072.351 1.951 1.019 2.637.677.668 1.555 1.02 2.645 1.011.966 0 1.845-.299 2.618-.888l1.055 2.075zm11.948-10.92l-4.041 9.232c-.844 1.934-1.933 2.866-3.533 2.875-.676 0-1.484-.255-1.827-.527l.966-2.348c.29.194.571.29.844.29.448 0 .738-.158.896-.483l.158-.36-5.21-8.644 3.128-.009 3.409 5.9 2.443-5.908 2.767-.018zm3.938 12.081l-2.759.009-.018-12.09c.211 0 .791 0 1.74-.017.966-.018 1.625-.018 1.95-.018 1.705 0 2.953.378 3.735 1.134.782.739 1.159 1.706 1.159 2.866 0 1.126-.413 2.093-1.221 2.884-.808.783-1.898 1.178-3.242 1.178-.606 0-1.054-.017-1.344-.052v4.106zm-.018-9.496l.009 2.76c.43.054.861.089 1.256.089.879 0 1.626-.431 1.617-1.486 0-.932-.554-1.398-1.678-1.398-.044 0-.448.017-1.204.035zM144 15.65c-.36.414-.914.765-1.634 1.02-.721.264-1.485.378-2.294.387-1.88 0-3.4-.563-4.577-1.705-1.178-1.152-1.766-2.656-1.766-4.537 0-1.812.544-3.315 1.651-4.493 1.107-1.178 2.654-1.768 4.657-1.768 1.538 0 2.935.51 3.699 1.258l-1.221 2.075c-.808-.501-1.643-.739-2.469-.739-.984 0-1.793.334-2.434.967-.641.642-.949 1.539-.949 2.7 0 1.072.352 1.952 1.019 2.637.677.669 1.556 1.02 2.645 1.011.967 0 1.845-.298 2.618-.888L144 15.65z" fill="#343434"/><path d="M0 12.151l2.908 4.792 14.814-.018 3.242-4.81L0 12.152z" fill="#fff"/><path d="M7.248 0l10.473 16.925 3.295-4.888L13.337 0H7.248z" fill="url(#paint0_linear)"/><path d="M7.249 0L0 12.151l2.908 4.792L13.32 0H7.25z" fill="url(#paint1_linear)"/><path d="M0 12.151l2.908 4.792 14.814-.018-2.97-4.8L0 12.15z" fill="url(#paint2_linear)"/><defs><linearGradient id="paint0_linear" x1="10.104" y1="-2.198" x2="22.855" y2="15.378" gradientUnits="userSpaceOnUse"><stop stop-color="#91191A"/><stop offset="1" stop-color="#B91A19"/></linearGradient><linearGradient id="paint1_linear" x1="12.301" y1="-.44" x2="1.307" y2="17.578" gradientUnits="userSpaceOnUse"><stop stop-color="#E30613"/><stop offset="1" stop-color="#B91A19"/></linearGradient><linearGradient id="paint2_linear" x1="0" y1="15.387" x2="20.648" y2="15.387" gradientUnits="userSpaceOnUse"><stop stop-color="#681412"/><stop offset="1" stop-color="#360601"/></linearGradient></defs></svg>