<svg width="144" height="18" viewBox="0 0 144 18" fill="none" xmlns="http://www.w3.org/2000/svg">
<path d="M23.8906 4.95887V7.54383L27.5194 7.53504L27.537 17.0396L30.2959 17.0308L30.2783 7.53504L33.9071 7.52625L33.8983 4.9325L23.8906 4.95887Z" fill="#343434"/>
<path d="M38.4054 17.022L35.6465 17.0308L35.6289 4.9413C35.8398 4.9413 36.4197 4.9413 37.3686 4.92371C38.3351 4.90613 38.9941 4.90613 39.3192 4.90613C41.0237 4.90613 42.2714 5.2842 43.0534 6.04034C43.8354 6.7789 44.2132 7.74607 44.2132 8.90666C44.2132 10.0321 43.8002 10.9992 42.9919 11.7906C42.1835 12.5731 41.094 12.9687 39.7497 12.9687C39.1435 12.9687 38.6954 12.9512 38.4054 12.916V17.022ZM38.3878 7.51746L38.3966 10.2783C38.8272 10.331 39.2577 10.3662 39.6531 10.3662C40.5317 10.3662 41.2786 9.93537 41.2698 8.88028C41.2698 7.94829 40.7162 7.4823 39.5916 7.4823C39.5476 7.4823 39.1522 7.49988 38.3878 7.51746Z" fill="#343434"/>
<path d="M43.8086 17.0132L48.808 4.91492H51.277L56.3204 16.9956L53.3682 17.0044L52.3665 14.4634L47.5867 14.4722L46.5851 17.0132H43.8086ZM49.9766 8.44945L48.6147 11.8697H51.3297L49.9766 8.44945Z" fill="#343434"/>
<path d="M65.0369 16.9781L65.0281 12.1071L60.6261 12.1159L60.6349 16.9869H57.876L57.8496 4.89735L60.6173 4.88855L60.6261 9.52214L65.0281 9.51334L65.0193 4.87976H67.7782L67.7958 16.9693L65.0369 16.9781Z" fill="#343434"/>
<path d="M80.3074 15.7559C79.9472 16.1691 79.3936 16.5208 78.6644 16.7758C77.9439 17.0396 77.1795 17.1539 76.3711 17.1627C74.4908 17.1627 72.9708 16.6 71.7934 15.457C70.616 14.2964 70.0273 12.8017 70.0273 10.9201C70.0273 9.10886 70.5721 7.60536 71.6792 6.42718C72.7775 5.249 74.3327 4.65991 76.336 4.65991C77.8736 4.65991 79.2706 5.16987 80.035 5.91722L78.8137 7.99222C78.0054 7.49106 77.1707 7.25366 76.3448 7.25366C75.3607 7.25366 74.5523 7.58777 73.9109 8.22083C73.2695 8.86267 72.962 9.75949 72.9708 10.9201C72.9708 11.9928 73.3222 12.872 73.99 13.5578C74.6666 14.226 75.5452 14.5777 76.6347 14.5689C77.6012 14.5689 78.4798 14.27 79.253 13.6809L80.3074 15.7559Z" fill="#343434"/>
<path d="M84.9738 16.9429L82.2148 16.9517L82.1973 4.8622C82.4081 4.8622 82.988 4.8622 83.937 4.84461C84.9035 4.82703 85.5624 4.82703 85.8875 4.82703C87.5921 4.82703 88.8398 5.2051 89.6218 5.96124C90.395 6.6998 90.7816 7.66697 90.7816 8.82756C90.7816 9.95298 90.3686 10.9201 89.5603 11.7115C88.7519 12.494 87.6624 12.8896 86.3181 12.8896C85.7118 12.8896 85.2637 12.8721 84.9738 12.8369V16.9429ZM84.9562 7.43836V10.1992C85.3867 10.2519 85.8173 10.2871 86.2126 10.2871C87.0913 10.2871 87.8381 9.85627 87.8293 8.80118C87.8293 7.86919 87.2758 7.40319 86.1511 7.40319C86.1072 7.40319 85.7118 7.42078 84.9562 7.43836Z" fill="#343434"/>
<path d="M92.459 16.9253L92.4414 4.83582L99.6023 4.81824L99.6111 7.41199L95.2091 7.42078V9.54854L99.0927 9.53975L99.1015 12.1335H95.2091L95.2179 14.3316L99.7956 14.3228V16.9166L92.459 16.9253Z" fill="#343434"/>
<path d="M111.219 15.7032C110.858 16.1164 110.305 16.4681 109.584 16.7231C108.855 16.9781 108.099 17.1011 107.291 17.1099C105.411 17.1099 103.891 16.5472 102.713 15.4042C101.536 14.2436 100.947 12.7489 100.947 10.8674C100.947 9.05612 101.492 7.55263 102.599 6.37445C103.706 5.19627 105.253 4.60718 107.256 4.60718C108.794 4.60718 110.191 5.11714 110.955 5.86449L109.734 7.93949C108.925 7.43832 108.091 7.20093 107.265 7.20093C106.281 7.20093 105.472 7.53504 104.831 8.16809C104.189 8.80994 103.882 9.70676 103.882 10.8674C103.882 11.94 104.233 12.8193 104.901 13.5051C105.578 14.1733 106.456 14.525 107.546 14.5162C108.512 14.5162 109.391 14.2172 110.164 13.6282L111.219 15.7032Z" fill="#343434"/>
<path d="M123.167 4.78308L119.126 14.0151C118.282 15.9494 117.193 16.8814 115.593 16.8902C114.917 16.8902 114.109 16.6352 113.766 16.3626L114.732 14.0151C115.022 14.2085 115.303 14.3052 115.576 14.3052C116.024 14.3052 116.314 14.147 116.472 13.8216L116.63 13.4612L111.42 4.81825L114.548 4.80946L117.957 10.7091L120.4 4.80067L123.167 4.78308Z" fill="#343434"/>
<path d="M127.105 16.8638L124.346 16.8726L124.328 4.78309C124.539 4.78309 125.119 4.78309 126.068 4.76551C127.034 4.74793 127.693 4.74792 128.018 4.74792C129.723 4.74792 130.971 5.126 131.753 5.88214C132.535 6.6207 132.912 7.58786 132.912 8.74846C132.912 9.87388 132.499 10.841 131.691 11.6324C130.883 12.4149 129.793 12.8105 128.449 12.8105C127.843 12.8105 127.395 12.793 127.105 12.7578V16.8638ZM127.087 7.36805L127.096 10.1289C127.526 10.1816 127.957 10.2168 128.352 10.2168C129.231 10.2168 129.978 9.78596 129.969 8.73087C129.969 7.79888 129.415 7.33289 128.291 7.33289C128.247 7.33289 127.843 7.35047 127.087 7.36805Z" fill="#343434"/>
<path d="M144 15.6504C143.64 16.0637 143.086 16.4154 142.366 16.6703C141.645 16.9341 140.881 17.0484 140.072 17.0572C138.192 17.0572 136.672 16.4945 135.495 15.3515C134.317 14.1997 133.729 12.6962 133.729 10.8146C133.729 9.00339 134.273 7.49989 135.38 6.32171C136.487 5.14353 138.034 4.55444 140.037 4.55444C141.575 4.55444 142.972 5.0644 143.736 5.81175L142.515 7.88675C141.707 7.38559 140.872 7.1482 140.046 7.1482C139.062 7.1482 138.253 7.48231 137.612 8.11536C136.971 8.7572 136.663 9.65402 136.663 10.8146C136.663 11.8873 137.015 12.7665 137.682 13.4523C138.359 14.1206 139.238 14.4722 140.327 14.4635C141.294 14.4635 142.172 14.1645 142.945 13.5754L144 15.6504Z" fill="#343434"/>
<path d="M0 12.151L2.90829 16.9429L17.7221 16.9253L20.9643 12.1158L0 12.151Z" fill="white"/>
<path d="M7.24805 0L17.7214 16.9253L21.0163 12.0368L13.337 0H7.24805Z" fill="url(#paint0_linear)"/>
<path d="M7.24876 0L0 12.1511L2.90829 16.9429L13.3202 0H7.24876Z" fill="url(#paint1_linear)"/>
<path d="M0 12.1511L2.90829 16.943L17.7221 16.9254L14.7523 12.1248L0 12.1511Z" fill="url(#paint2_linear)"/>
<defs>
<linearGradient id="paint0_linear" x1="10.1036" y1="-2.1981" x2="22.8553" y2="15.3784" gradientUnits="userSpaceOnUse">
<stop stop-color="#91191A"/>
<stop offset="1" stop-color="#B91A19"/>
</linearGradient>
<linearGradient id="paint1_linear" x1="12.3009" y1="-0.439619" x2="1.30702" y2="17.5781" gradientUnits="userSpaceOnUse">
<stop stop-color="#E30613"/>
<stop offset="1" stop-color="#B91A19"/>
</linearGradient>
<linearGradient id="paint2_linear" x1="-1.04337e-07" y1="15.3867" x2="20.648" y2="15.3867" gradientUnits="userSpaceOnUse">
<stop stop-color="#681412"/>
<stop offset="1" stop-color="#360601"/>
</linearGradient>
</defs>
</svg>
